{"asset":{"generator":"3D Builder","version":"2.0"},"scene":0,"scenes":[{"nodes":[0,1]}],"nodes":[{"mesh":0,"matrix":[1,0,0,0,0,-1.1920928955078125E-7,-0.99999988079071045,0,0,0.99999988079071045,-1.1920928955078125E-7,0,0.80860763788223267,0.99999994039535522,0.29936432838439941,1]},{"mesh":1,"matrix":[1,0,0,0,0,-1.1920928955078125E-7,-0.99999988079071045,0,0,0.99999988079071045,-1.1920928955078125E-7,0,0.80860763788223267,0.99999994039535522,0.29936432838439941,1]}],"meshes":[{"primitives":[{"attributes":{"POSITION":0},"mode":4,"indices":1,"material":0}]},{"primitives":[{"attributes":{"POSITION":2,"COLOR_0":3},"mode":4,"indices":4}]}],"materials":[{"name":"Material","pbrMetallicRoughness":{"baseColorFactor":[0.800000011920929,0.800000011920929,0.800000011920929,1],"metallicFactor":0,"roughnessFactor":0.40000000596046448},"alphaMode":"OPAQUE"}],"accessors":[{"bufferView":0,"byteOffset":0,"count":8,"componentType":5126,"type":"VEC3","min":[-1,-1,-1],"max":[1,1,1]},{"bufferView":1,"byteOffset":0,"count":36,"componentType":5125,"type":"SCALAR"},{"bufferView":2,"byteOffset":0,"count":869,"componentType":5126,"type":"VEC3","min":[-6.10389518737793,-4.9995150566101074,-2.3841855067985307E-7],"max":[4.4866800308227539,5.5982437133789062,16.726409912109375]},{"bufferView":3,"byteOffset":0,"count":869,"componentType":5121,"type":"VEC4","normalized":true},{"bufferView":4,"byteOffset":0,"count":5226,"componentType":5125,"type":"SCALAR"}],"bufferViews":[{"buffer":0,"byteOffset":0,"byteLength":96,"byteStride":12,"target":34962},{"buffer":0,"byteOffset":96,"byteLength":144,"target":34963},{"buffer":0,"byteOffset":240,"byteLength":10428,"byteStride":12,"target":34962},{"buffer":0,"byteOffset":10668,"byteLength":3476,"byteStride":4,"target":34962},{"buffer":0,"byteOffset":14144,"byteLength":20904,"target":34963}],"buffers":[{"byteLength":35048,"uri":"tree2.bin"}]}